<!--
   Copyright © 2026 dox authors.
  
   This program is free software: you can redistribute it and/or modify
   it under the terms of the GNU General Public License as published by
   the Free Software Foundation, either version 3 of the License, or
   (at your option) any later version.
  
   This program is distributed in the hope that it will be useful,
   but WITHOUT ANY WARRANTY; without even the implied warranty of
   MERCHANTABILITY or FITNESS FOR A PARTICULAR PURPOSE. See the
   GNU General Public License for more details.
  
   You should have received a copy of the GNU General Public License
   along with this program. If not, see <https://www.gnu.org/licenses/>.
  
   dox.svg
  
   - Author   : Frost Leo <frostleo.dev@gmail.com>
   - Created  : 2026-03-20
   - Modified : 2026-03-20
  -->

<svg version="1.1" xmlns="http://www.w3.org/2000/svg"
     width="100%" viewBox="0 0 1024 528">

    <style>
        :root {
        color-scheme: light dark;
        }

        .logo-path {
        fill: #000000;
        }

        @media (prefers-color-scheme: dark) {
        .logo-path {
        fill: #ffffff;
        }
        }
    </style>

    <path class="logo-path" opacity="1.000000" stroke="none"
          d="
    M570.310913,162.103119
      C567.000427,194.817154 563.950623,227.101364 560.253113,259.311218
      C559.230347,268.221069 560.574097,275.620361 565.794617,283.060364
      C575.265076,296.556946 583.892944,310.646545 595.086060,322.869659
      C603.855591,332.446228 613.578369,340.696594 626.318970,344.490540
      C631.431580,346.013000 636.716248,346.816132 642.080200,346.418610
      C660.454102,345.057037 675.099304,358.010681 676.089172,376.564240
      C676.963440,392.952942 662.715698,407.584900 645.353821,408.287903
      C611.825867,409.645447 583.571228,397.521362 559.317627,374.947296
      C548.284424,364.678162 538.918396,353.001221 530.040466,340.890808
      C529.270874,339.840973 528.659607,338.594025 527.193298,338.126221
      C525.333801,338.933197 524.960388,340.870636 524.113708,342.423462
      C510.087433,368.148102 490.826477,388.789764 463.973602,401.046661
      C429.095154,416.966797 394.908173,416.459229 363.761566,391.980194
      C341.844513,374.754913 330.761536,350.966309 327.654541,323.563782
      C322.817047,280.898743 335.435455,243.563004 363.751831,211.639313
      C382.948456,189.997192 406.796326,175.846680 435.801056,172.184418
      C457.174561,169.485718 477.629120,173.152573 496.087677,185.098938
      C498.322235,186.545151 500.572754,187.967453 502.840393,189.360992
      C503.077301,189.506592 503.481110,189.380539 503.892578,189.380539
      C505.637604,188.484680 505.517914,186.746658 505.686737,185.103760
      C508.642151,156.342819 511.674622,127.589508 514.504761,98.816284
      C514.944519,94.345253 515.052307,89.814987 516.155701,85.471031
      C519.910278,70.690002 532.733521,61.852020 548.873779,62.691326
      C562.639099,63.407131 574.111145,74.357269 576.460632,88.699776
      C577.919861,97.607948 575.581604,106.250351 574.939758,114.990234
      C573.795410,130.570786 571.905273,146.096558 570.310913,162.103119
    M382.986237,294.234497
      C381.463715,301.941620 382.706970,309.543427 384.590271,316.926178
      C392.812225,349.156433 423.346649,362.184509 450.827515,345.385162
      C476.799744,329.508148 490.764771,294.467957 482.859009,265.013794
      C473.945374,231.804626 441.146790,219.742081 413.194153,239.801758
      C395.014404,252.848083 385.502594,271.205841 382.986237,294.234497
    z"/>
</svg>