<!--
 * dox
 * Copyright (C) 2026  OpenDox
 *
 * This program is free software: you can redistribute it and/or modify
 * it under the terms of the GNU General Public License as published by
 * the Free Software Foundation, either version 3 of the License, or
 * (at your option) any later version.
 *
 * This program is distributed in the hope that it will be useful,
 * but WITHOUT ANY WARRANTY; without even the implied warranty of
 * MERCHANTABILITY or FITNESS FOR A PARTICULAR PURPOSE.  See the
 * GNU General Public License for more details.
 *
 * You should have received a copy of the GNU General Public License
 * along with this program.  If not, see <http://www.gnu.org/licenses/>.
 *
 * @File    : logo.svg
 * @Author  : Frost Leo <frostleo.dev@gmail.com>
 * @Created : 2026-03-31
 * @Modified: 2026-03-31
 -->

<svg version="1.1" xmlns="http://www.w3.org/2000/svg" style="display: block;" viewBox="0 0 2048 2048" width="1000" height="1000" preserveAspectRatio="none">
    <style>
        .logo-main { fill: #000000; }
        .logo-dot  { fill: #000000; fill-opacity: 0.964706; }
        .logo-line { stroke: #000000; stroke-width: 4; }

        @media (prefers-color-scheme: dark) {
        .logo-main { fill: #ffffff; }
        .logo-dot  { fill: #ffffff; fill-opacity: 0.964706; }
        .logo-line { stroke: #ffffff; }
        }
    </style>

    <path class="logo-main" transform="translate(0,0)" d="M 1123.56 747.296 L 1154.16 443.851 L 1162.72 356.556 C 1164.04 343.854 1165.72 323.878 1168.15 311.897 C 1170.63 299.432 1175.41 287.537 1182.24 276.819 C 1197.58 252.951 1218.1 241.201 1245.38 235.453 C 1304.85 222.919 1356.61 262.316 1368.58 320.322 C 1363.59 328.085 1366.31 355.978 1368.23 365.297 C 1353.96 528.895 1335.9 695.426 1319.74 858.95 L 1308.35 972.614 C 1306.81 987.238 1301.53 1029.41 1302.86 1041.82 C 1305.41 1065.51 1328.11 1111.91 1341.1 1133.51 C 1387.44 1210.57 1466.19 1313.18 1554.5 1342.56 C 1567.2 1345.72 1584.5 1350.7 1597.52 1350.96 C 1644.62 1351.88 1681.9 1359.15 1707.28 1404.4 C 1721.3 1429.39 1724.77 1458.93 1716.94 1486.49 C 1708.9 1514.43 1690.01 1537.99 1664.49 1551.92 C 1618.65 1576.91 1542.99 1560.88 1494.26 1547.22 C 1368.57 1512 1258.28 1410.53 1196.56 1296.72 C 1179.8 1334.38 1160.69 1368.58 1134.35 1400.48 C 910.462 1671.52 517.266 1565.97 482.367 1205.68 C 469.403 1065.29 512.731 925.507 602.822 817.065 C 738.848 652.358 951.847 605.137 1123.56 747.296 z M 861.771 1337.96 C 926.217 1326.67 974.09 1289.74 1011.16 1236.93 C 1053.87 1176.04 1070.85 1100.77 1058.41 1027.44 C 1042.95 938.55 976.476 868.507 881.925 876.304 C 825.051 883.199 778.345 912.186 743.273 957.011 C 693.827 1019.36 671.872 1099.14 682.454 1178.01 C 688.767 1228.02 713.43 1278.4 753.854 1309.49 C 783.977 1332.56 821.948 1342.9 859.61 1338.27 C 860.332 1338.18 861.052 1338.08 861.771 1337.96 z"/>
    <path class="logo-dot" transform="translate(0,0)" d="M 1368.58 320.322 C 1370.11 333.276 1370.56 352.235 1368.23 365.297 C 1366.31 355.978 1363.59 328.085 1368.58 320.322 z"/>
</svg>
